# xmcd
#
# Track frame offsets: 
#        150
#        18452
#        35927
#        61268
#        81752
#        121950
#        153249
#        171536
#
# Disc length: 2649 seconds
#
# Revision: 2
# Processed by: cddbd v1.5.2PL0 Copyright (c) Steve Scherf et al.
# Submitted via: ExactAudioCopy v0.99pb5
#
DISCID=660a5708
DTITLE=Michael Maricle - Breakthrough for peak-performance
DYEAR=2005
DGENRE=Meditative
TTITLE0=Breakthrough 01
TTITLE1=Breakthrough 02
TTITLE2=Breakthrough 03
TTITLE3=Breakthrough 04
TTITLE4=Breakthrough 05
TTITLE5=Breakthrough 06
TTITLE6=Breakthrough 07
TTITLE7=Breakthrough 08
EXTD=YEAR: 2005
EXTT0=
EXTT1=
EXTT2=
EXTT3=
EXTT4=
EXTT5=
EXTT6=
EXTT7=
PLAYORDER=
